<?xml version="1.0" encoding="UTF-8" standalone="no"?><!DOCTYPE svg PUBLIC "-//W3C//DTD SVG 1.1//EN" "http://www.w3.org/Graphics/SVG/1.1/DTD/svg11.dtd"><svg width="100%" height="100%" viewBox="0 0 2134 2134" version="1.1" xmlns="http://www.w3.org/2000/svg" xmlns:xlink="http://www.w3.org/1999/xlink" xml:space="preserve" xmlns:serif="http://www.serif.com/" style="fill-rule:evenodd;clip-rule:evenodd;stroke-linejoin:round;stroke-miterlimit:2;"><g><path d="M749.221,86.333l0,338.542l-183.471,-109.775l73.183,195.575l-481.9,-87.242l352.992,207.942l-426.692,0l-0,113.938l460.292,61.979l402.471,-121.617c-47.096,-49.458 -77.475,-128.096 -77.475,-216.667c0,-149.692 86.958,-271.092 194.267,-271.092c107.304,0 194.271,121.4 194.271,271.096c0,86.863 -29.325,164.063 -74.875,213.667l412.625,124.613l468.75,-63.15l0,-112.767l-421.2,0l352.992,-207.937l-501.821,90.75l74.475,-198.825l-202.733,121.358l0,-350.388l-616.15,0Zm1314.446,844.262l-468.75,93.488l-230.854,-54.683l-116.792,492.971l69.133,604.167l215.367,0l-159.896,-603.121l193.875,116.008l-88.792,-237.238l518.483,93.75l-379.688,-223.7l447.917,0l0,-281.638l-0.004,-0.004Zm-1980.333,1.696l0,279.95l453.387,0l-379.688,223.696l498.425,-90.229l-87.354,233.458l160.292,-95.833l-119.146,583.208l200.646,0l53.771,-601.708l-90.354,-495.167l-229.688,54.417l-460.292,-91.792Z" style="fill:#000000;fill-rule:nonzero;"/></g></svg>